<?xml version="1.0" standalone="no"?>
<!DOCTYPE svg PUBLIC "-//W3C//DTD SVG 20010904//EN"
 "http://www.w3.org/TR/2001/REC-SVG-20010904/DTD/svg10.dtd">
<svg version="1.0" xmlns="http://www.w3.org/2000/svg"
 width="512.000000pt" height="512.000000pt" viewBox="0 0 512.000000 512.000000"
 preserveAspectRatio="xMidYMid meet">
<metadata>
Created by potrace 1.11, written by Peter Selinger 2001-2013
</metadata>
<g transform="translate(0.000000,512.000000) scale(0.100000,-0.100000)"
fill="#000000" stroke="none">
<path d="M51 5106 c-53 -30 -50 126 -51 -2543 0 -1904 3 -2488 12 -2508 27
-59 -152 -55 2548 -55 2700 0 2521 -4 2548 55 9 20 12 604 12 2506 0 2699 4
2520 -55 2547 -40 19 -4980 17 -5014 -2z m1169 -2271 l0 -1155 455 0 455 0 0
-260 0 -260 -795 0 -795 0 0 1415 0 1415 340 0 340 0 0 -1155z m2300 560 c86
-21 211 -83 282 -140 65 -51 136 -136 176 -210 l27 -50 3 198 2 197 340 0 340
0 0 -1115 0 -1115 -340 0 -340 0 -2 198 -3 197 -22 -40 c-92 -173 -259 -302
-460 -357 -114 -30 -333 -31 -456 0 -366 91 -617 376 -709 805 -29 139 -32
465 -5 601 95 470 365 764 770 842 91 17 307 11 397 -11z"/>
<path d="M3401 2809 c-69 -13 -166 -64 -220 -114 -58 -54 -115 -157 -136 -246
-19 -82 -19 -265 0 -347 47 -201 193 -335 394 -364 258 -36 479 112 546 367
22 83 22 261 0 345 -47 182 -176 315 -346 355 -69 16 -168 18 -238 4z"/>
</g>
</svg>
