<?xml version="1.0" standalone="no"?>
<!DOCTYPE svg PUBLIC "-//W3C//DTD SVG 20010904//EN"
 "http://www.w3.org/TR/2001/REC-SVG-20010904/DTD/svg10.dtd">
<svg version="1.0" xmlns="http://www.w3.org/2000/svg"
 width="120.000000pt" height="120.000000pt" viewBox="0 0 120.000000 120.000000"
 preserveAspectRatio="xMidYMid meet">
<metadata>
Created by potrace 1.14, written by Peter Selinger 2001-2017
</metadata>
<g transform="translate(0.000000,120.000000) scale(0.100000,-0.100000)"
fill="#000000" stroke="none">
<path d="M502 1149 c-13 -5 -29 -14 -36 -21 -7 -7 -27 -25 -44 -40 -39 -35
-64 -81 -65 -125 -1 -32 -2 -33 -31 -26 -17 4 -44 6 -60 5 -46 -2 -131 -49
-161 -88 -34 -44 -51 -100 -35 -118 8 -10 6 -15 -9 -19 -64 -16 10 -195 96
-234 21 -10 40 -19 42 -20 2 -2 -4 -12 -15 -24 -16 -18 -19 -36 -18 -108 0
-80 3 -91 30 -132 38 -56 71 -74 96 -52 17 15 18 15 12 -14 -5 -24 -1 -32 18
-45 24 -16 63 -15 84 2 6 6 29 8 51 4 46 -7 90 11 122 51 l20 26 39 -39 c43
-43 87 -57 161 -54 53 2 132 38 138 62 3 10 18 21 34 24 45 9 66 64 65 169 -1
65 -5 87 -18 101 -24 23 -23 33 5 40 35 8 94 71 118 123 27 60 23 148 -8 173
-15 12 -18 21 -12 33 17 29 -11 67 -75 99 -81 41 -124 49 -177 35 -21 -5 -26
-3 -26 11 3 48 -16 92 -58 134 -51 52 -99 78 -144 78 -25 0 -31 -4 -32 -22 l0
-23 -16 23 c-16 23 -50 28 -91 11z"/>
</g>
</svg>
